<svg width="24" height="24" viewBox="0 0 24 24" fill="none" xmlns="http://www.w3.org/2000/svg">
<path fill-rule="evenodd" clip-rule="evenodd" d="M16.2481 4.032C15.1278 2.91138 13.6145 2.27205 12.0301 2.25H11.9701C10.3856 2.27173 8.87202 2.91085 7.75148 4.03139C6.63094 5.15193 5.99182 6.66546 5.97009 8.25C5.95059 9.375 6.26709 10.4805 6.87909 11.4255L11.6011 21H12.4006L17.1211 11.4255C17.7346 10.4805 18.0511 9.375 18.0301 8.25C18.008 6.66559 17.3687 5.15229 16.2481 4.032V4.032ZM11.8876 3.75L12.0106 3.765L12.1216 3.75C13.2999 3.80132 14.4139 4.3021 15.2344 5.14939C16.0549 5.99668 16.5196 7.12611 16.5331 8.3055C16.5446 9.14254 16.3002 9.96313 15.8326 10.6575L15.8026 10.7085L15.7771 10.761L12.0001 18.4185L8.22459 10.7685L8.19909 10.71L8.16909 10.659C7.70151 9.96463 7.45711 9.14404 7.46859 8.307C7.48138 7.12624 7.94668 5.99539 8.76857 5.14755C9.59046 4.2997 10.7063 3.79948 11.8861 3.75H11.8876ZM12.8056 7.0035C12.6418 6.89398 12.458 6.81779 12.2648 6.77928C12.0716 6.74078 11.8726 6.74071 11.6794 6.77908C11.4861 6.81746 11.3023 6.89352 11.1384 7.00293C10.9746 7.11234 10.8339 7.25296 10.7243 7.41675C10.6148 7.58054 10.5386 7.7643 10.5001 7.95754C10.4616 8.15077 10.4615 8.3497 10.4999 8.54296C10.5383 8.73622 10.6144 8.92004 10.7238 9.0839C10.8332 9.24777 10.9738 9.38848 11.1376 9.498C11.4684 9.71919 11.8735 9.79992 12.2638 9.72242C12.6541 9.64492 12.9976 9.41554 13.2188 9.08475C13.44 8.75396 13.5208 8.34885 13.4433 7.95854C13.3658 7.56823 13.1364 7.22469 12.8056 7.0035V7.0035ZM10.3051 5.7555C10.6324 5.52543 11.0024 5.36315 11.3933 5.27821C11.7843 5.19326 12.1882 5.18736 12.5815 5.26086C12.9747 5.33436 13.3493 5.48577 13.6832 5.70618C14.017 5.9266 14.3035 6.21156 14.5256 6.54431C14.7476 6.87706 14.901 7.25087 14.9764 7.64374C15.0519 8.03662 15.0481 8.44062 14.9651 8.83198C14.8821 9.22334 14.7217 9.59416 14.4933 9.92261C14.2649 10.2511 13.9731 10.5305 13.6351 10.7445C12.9734 11.1634 12.1742 11.307 11.4081 11.1446C10.6421 10.9822 9.96985 10.5266 9.5351 9.87528C9.10034 9.22394 8.93752 8.42841 9.08139 7.65864C9.22526 6.88886 9.66443 6.20585 10.3051 5.7555V5.7555Z" fill="black"/>
</svg>
